<svg width="25" height="24" viewBox="0 0 25 24" fill="none" xmlns="http://www.w3.org/2000/svg">
<g id="heroicons-solid/bolt">
<path id="Vector 449 (Stroke)" fill-rule="evenodd" clip-rule="evenodd" d="M15.1152 1.59495C15.4165 1.76289 15.5643 2.11463 15.4736 2.44736L13.482 9.75003H20.75C21.0487 9.75003 21.3189 9.92721 21.4379 10.2011C21.5569 10.475 21.5021 10.7934 21.2983 11.0118L10.7983 22.2618C10.563 22.5139 10.186 22.573 9.88481 22.4051C9.58357 22.2372 9.4357 21.8854 9.52644 21.5527L11.5181 14.25H4.25002C3.95137 14.25 3.68118 14.0728 3.56216 13.7989C3.44313 13.525 3.49795 13.2066 3.70173 12.9883L14.2017 1.73829C14.437 1.48615 14.814 1.42701 15.1152 1.59495Z" fill="#5700FF"/>
</g>
</svg>
