<svg width="28" height="28" viewBox="0 0 28 28" fill="none" xmlns="http://www.w3.org/2000/svg">
<g id="Icon">
<g id="Union">
<path d="M5.73192 3.10127C8.15232 2.78703 10.6201 2.625 13.1253 2.625C15.6303 2.625 18.0979 2.78699 20.518 3.10118C22.7607 3.39231 24.3581 5.2726 24.491 7.4491C24.1109 7.32216 23.7081 7.23796 23.2867 7.20299C21.6667 7.06853 20.0285 7 18.375 7C16.7214 7 15.0833 7.06852 13.4633 7.20298C10.712 7.43133 8.75 9.75878 8.75 12.3762V17.376C8.75 19.3484 9.86379 21.1547 11.5883 22.0242L8.49372 25.1187C8.24347 25.369 7.86712 25.4438 7.54015 25.3084C7.21319 25.173 7 24.8539 7 24.5V19.799C6.57591 19.7535 6.1532 19.7034 5.73193 19.6488C3.38877 19.3445 1.75 17.3055 1.75 15.0064V7.74361C1.75 5.44451 3.38877 3.40548 5.73192 3.10127Z" fill="#F5F3F0"/>
<path d="M18.375 8.75C16.7698 8.75 15.1799 8.81652 13.6081 8.94698C11.8122 9.09603 10.5 10.62 10.5 12.3762V17.376C10.5 19.1349 11.816 20.6597 13.6141 20.8065C15.0652 20.9249 16.5317 20.9897 18.0114 20.9989L21.2563 24.2437C21.5065 24.494 21.8829 24.5688 22.2098 24.4334C22.5368 24.298 22.75 23.9789 22.75 23.625V20.8368C22.8787 20.8271 23.0074 20.8171 23.1358 20.8066C24.934 20.6599 26.25 19.1351 26.25 17.3761V12.3763C26.25 10.62 24.9378 9.09604 23.1419 8.94699C21.57 8.81652 19.9802 8.75 18.375 8.75Z" fill="#F5F3F0"/>
</g>
</g>
</svg>
