<svg width="25" height="25" viewBox="0 0 25 25" fill="none" xmlns="http://www.w3.org/2000/svg">
<g id="Icon">
<path id="vector" d="M20.2857 8.42071C20.2979 8.59703 20.2979 8.77334 20.2979 8.95128C20.2979 14.3732 16.1703 20.6263 8.62291 20.6263V20.623C6.39338 20.6263 4.21016 19.9876 2.33325 18.7835C2.65744 18.8225 2.98326 18.842 3.30989 18.8428C5.15755 18.8444 6.95239 18.2245 8.40597 17.0829C6.65013 17.0496 5.11042 15.9048 4.57254 14.2334C5.18761 14.3521 5.82137 14.3277 6.42507 14.1627C4.51079 13.776 3.13358 12.0941 3.13358 10.1408C3.13358 10.1229 3.13358 10.1059 3.13358 10.0888C3.70396 10.4065 4.3426 10.5828 4.99586 10.6023C3.19289 9.39735 2.63713 6.99882 3.7259 5.12354C5.80918 7.68701 8.88292 9.24541 12.1825 9.41035C11.8518 7.98521 12.3036 6.49181 13.3696 5.48998C15.0223 3.93646 17.6215 4.01608 19.175 5.66792C20.094 5.48673 20.9747 5.14954 21.7807 4.67178C21.4744 5.62161 20.8334 6.42843 19.977 6.94113C20.7903 6.84525 21.5849 6.6275 22.3333 6.29518C21.7824 7.12069 21.0885 7.83977 20.2857 8.42071Z" fill="#5700FF"/>
</g>
</svg>
