<svg width="25" height="25" viewBox="0 0 25 25" fill="none" xmlns="http://www.w3.org/2000/svg">
<g id="Icon">
<path id="vector" d="M21.3333 4.82353V20.1765C21.3333 20.5275 21.1938 20.8641 20.9456 21.1123C20.6974 21.3606 20.3607 21.5 20.0097 21.5H4.65678C4.30576 21.5 3.96911 21.3606 3.7209 21.1123C3.47269 20.8641 3.33325 20.5275 3.33325 20.1765V4.82353C3.33325 4.47251 3.47269 4.13586 3.7209 3.88765C3.96911 3.63944 4.30576 3.5 4.65678 3.5H20.0097C20.3607 3.5 20.6974 3.63944 20.9456 3.88765C21.1938 4.13586 21.3333 4.47251 21.3333 4.82353ZM8.62737 10.3824H5.98031V18.8529H8.62737V10.3824ZM8.8656 7.47059C8.867 7.27036 8.82894 7.07182 8.75361 6.8863C8.67827 6.70078 8.56713 6.53191 8.42653 6.38935C8.28593 6.24678 8.11862 6.1333 7.93417 6.0554C7.74971 5.97749 7.55172 5.93668 7.35149 5.93529H7.30384C6.89666 5.93529 6.50615 6.09705 6.21822 6.38497C5.9303 6.67289 5.76855 7.0634 5.76855 7.47059C5.76855 7.87777 5.9303 8.26828 6.21822 8.55621C6.50615 8.84413 6.89666 9.00588 7.30384 9.00588C7.50408 9.01081 7.70333 8.97623 7.89021 8.90413C8.07708 8.83202 8.24792 8.7238 8.39295 8.58565C8.53799 8.44749 8.65438 8.28212 8.73548 8.09897C8.81658 7.91582 8.8608 7.71848 8.8656 7.51824V7.47059ZM18.6862 13.7071C18.6862 11.1606 17.0662 10.1706 15.4568 10.1706C14.9298 10.1442 14.4052 10.2564 13.9351 10.4961C13.4651 10.7358 13.0661 11.0945 12.778 11.5365H12.7038V10.3824H10.2156V18.8529H12.8627V14.3476C12.8244 13.8862 12.9697 13.4283 13.2671 13.0735C13.5645 12.7186 13.9899 12.4954 14.4509 12.4524H14.5515C15.3933 12.4524 16.018 12.9818 16.018 14.3159V18.8529H18.665L18.6862 13.7071Z" fill="#5700FF"/>
</g>
</svg>
